<svg xmlns="http://www.w3.org/2000/svg" viewBox="0 0 64 64">
  <defs>
    <linearGradient id="bg" x1="12" y1="10" x2="52" y2="54" gradientUnits="userSpaceOnUse">
      <stop offset="0" stop-color="#68d7c0"/>
      <stop offset="1" stop-color="#ffbf69"/>
    </linearGradient>
    <linearGradient id="glass" x1="18" y1="14" x2="46" y2="50" gradientUnits="userSpaceOnUse">
      <stop offset="0" stop-color="#ffffff" stop-opacity=".26"/>
      <stop offset="1" stop-color="#ffffff" stop-opacity=".04"/>
    </linearGradient>
  </defs>
  <rect x="6" y="6" width="52" height="52" rx="18" fill="url(#bg)"/>
  <rect x="11" y="11" width="42" height="42" rx="14" fill="url(#glass)" stroke="#ffffff" stroke-opacity=".18"/>
  <path d="M25 18h10.7c6.74 0 10.3 2.69 10.3 7.31 0 3.11-1.7 5.3-4.85 6.23 3.84.74 5.85 3.13 5.85 6.92 0 5.15-3.8 8.54-10.76 8.54H25V18zm9.12 11.48c2.89 0 4.43-1.13 4.43-3.3 0-2.15-1.54-3.22-4.43-3.22h-2.31v6.52h2.31zm1.11 12.58c3.1 0 4.77-1.28 4.77-3.69 0-2.35-1.67-3.54-4.77-3.54h-3.42v7.23h3.42z" fill="#072031"/>
</svg>
